<?xml version="1.0" standalone="no"?>
<!DOCTYPE svg PUBLIC "-//W3C//DTD SVG 20010904//EN"
 "http://www.w3.org/TR/2001/REC-SVG-20010904/DTD/svg10.dtd">
<svg version="1.0" xmlns="http://www.w3.org/2000/svg"
 width="260.000000pt" height="260.000000pt" viewBox="0 0 260.000000 260.000000"
 preserveAspectRatio="xMidYMid meet">
<metadata>
Created by potrace 1.14, written by Peter Selinger 2001-2017
</metadata>
<g transform="translate(0.000000,260.000000) scale(0.100000,-0.100000)"
fill="#000000" stroke="none">
<path d="M614 2540 c-3 -2 -32 -3 -64 -2 -36 2 -60 -2 -60 -8 0 -5 -11 -10
-25 -10 -17 0 -23 -4 -19 -14 3 -8 1 -17 -4 -20 -5 -3 -6 -23 -2 -46 4 -23 4
-57 0 -75 -9 -39 -5 -45 26 -45 26 0 34 19 33 80 -2 88 -3 86 49 87 26 1 70 4
97 6 28 3 55 2 60 -2 6 -3 57 -6 115 -6 78 0 114 4 139 16 32 15 35 15 52 -2
23 -23 49 -15 44 13 -3 11 -6 23 -9 25 -2 3 -39 4 -83 4 -89 -1 -144 -1 -261
2 -46 1 -86 0 -88 -3z"/>
<path d="M1147 2542 c-13 -3 -17 -11 -15 -30 3 -25 6 -27 57 -27 37 0 61 5 77
17 27 22 34 22 49 2 14 -20 101 -26 116 -8 5 6 18 10 28 7 21 -5 37 22 19 33
-13 8 -243 8 -257 0 -5 -3 -20 -2 -33 2 -12 5 -31 7 -41 4z"/>
<path d="M1597 2518 c-16 -17 -21 -18 -35 -6 -9 8 -23 13 -29 12 -7 -1 -17 -2
-23 -3 -15 -2 -12 -31 3 -32 61 -6 117 11 117 36 0 20 -11 18 -33 -7z"/>
<path d="M1700 2505 c-10 -12 -8 -16 6 -22 11 -3 23 -12 27 -20 11 -18 47 -16
47 3 0 9 -9 18 -20 21 -11 3 -20 9 -20 13 0 15 -29 19 -40 5z"/>
<path d="M876 2463 c-4 -5 -82 -10 -174 -13 l-166 -5 -4 -82 c-3 -72 -1 -83
13 -83 12 0 15 -6 10 -22 -4 -13 -11 -27 -16 -32 -5 -5 -2 -14 6 -20 19 -15 8
-67 -16 -73 -16 -4 -19 -15 -19 -59 0 -50 7 -64 24 -47 13 13 44 9 68 -9 l23
-18 -46 0 c-26 0 -51 -6 -57 -12 -12 -15 -11 -87 1 -106 5 -7 5 -18 -1 -25
-13 -17 -16 -207 -3 -208 6 -1 17 -2 24 -3 18 -2 9 -47 -13 -63 -22 -16 -26
-53 -9 -70 7 -7 8 -19 4 -30 -13 -29 -16 -93 -5 -113 6 -11 6 -21 1 -24 -12
-8 -12 -194 0 -201 5 -4 5 -13 -1 -24 -9 -18 -11 -508 -2 -543 3 -14 6 -14 23
3 19 19 39 25 39 12 0 -5 -16 -19 -35 -32 -20 -13 -34 -27 -32 -30 2 -3 9 -20
16 -38 7 -18 21 -35 31 -38 25 -8 24 -55 -1 -55 -27 0 -24 -29 4 -39 27 -10
43 -30 43 -50 -1 -23 -27 -25 -33 -2 -4 17 -37 37 -53 32 -11 -3 -5 -27 12
-47 19 -21 19 -22 -1 -27 -22 -5 -29 -41 -11 -52 6 -3 10 -17 10 -29 0 -13 6
-29 14 -35 18 -15 123 -18 137 -4 8 8 20 8 43 -1 39 -15 196 -13 205 3 4 7 21
15 37 20 l29 7 2 242 c1 203 0 242 -12 242 -11 0 -13 8 -8 33 3 17 10 36 14
41 12 13 11 63 -1 71 -6 4 -5 15 2 30 21 45 -21 100 -74 96 -9 -1 -19 3 -22 8
-8 13 40 45 54 36 5 -3 10 -2 10 3 0 6 -7 12 -15 16 -19 7 -20 36 -2 36 16 0
60 -44 52 -52 -3 -2 4 -13 15 -23 17 -15 38 -17 167 -17 139 1 204 5 228 13 6
2 19 -2 30 -8 11 -6 31 -9 44 -7 37 6 72 -31 64 -68 -4 -19 -1 -33 7 -38 18
-11 22 -60 5 -60 -8 0 -14 -16 -16 -43 -5 -59 0 -87 16 -87 8 0 26 -20 41 -45
30 -51 49 -57 57 -17 6 28 53 62 87 62 18 0 36 -42 25 -60 -10 -16 -35 -11
-35 6 0 9 -6 14 -12 11 -7 -2 -13 -12 -13 -23 0 -13 -6 -18 -21 -16 -12 1 -27
-4 -34 -13 -18 -22 -60 -20 -60 4 0 25 -27 48 -41 34 -12 -12 -16 -163 -5
-181 4 -7 4 -17 1 -23 -4 -6 -8 -51 -9 -101 -1 -79 1 -92 16 -96 22 -5 23 -18
2 -26 -8 -3 -13 -10 -9 -15 8 -13 51 4 47 18 -1 6 6 11 17 11 11 0 18 -6 17
-16 -1 -14 10 -17 64 -17 36 0 75 3 87 7 12 4 24 3 26 -1 4 -6 163 -9 197 -4
8 1 5 155 -3 168 -4 6 -3 14 1 17 5 3 8 33 7 67 -2 50 2 64 18 80 21 19 21 19
-7 19 -25 0 -27 3 -21 22 12 38 12 192 1 200 -16 11 -74 10 -81 -2 -3 -6 -17
-10 -30 -10 -28 0 -42 -17 -26 -33 21 -21 13 -38 -15 -31 -23 6 -25 4 -20 -14
4 -11 2 -23 -4 -27 -13 -8 -16 -6 -24 20 -4 15 0 23 17 30 13 6 21 17 19 28
-4 23 17 49 34 43 7 -3 16 -1 19 5 4 5 -1 12 -9 15 -19 7 -21 45 -4 62 7 7 8
12 4 12 -5 0 -3 7 4 15 7 8 21 15 32 15 15 0 19 -6 16 -24 -3 -28 48 -84 64
-68 14 14 20 69 8 77 -6 4 -7 12 -1 24 6 10 6 23 1 31 -5 8 -5 19 0 25 7 9 7
35 0 55 -1 3 -2 12 -1 21 2 19 -76 92 -84 79 -3 -6 -13 -10 -22 -10 -11 0 -14
6 -9 24 12 49 -65 92 -116 65 -19 -10 -20 -9 -14 17 10 39 26 56 48 51 10 -3
18 0 18 6 0 6 30 41 66 79 65 67 66 69 49 88 -10 11 -13 20 -7 20 6 0 15 -8
21 -17 9 -17 11 -16 32 4 19 18 23 34 24 88 0 37 -3 69 -7 71 -5 3 -22 -2 -40
-10 -28 -15 -33 -15 -49 0 -25 23 -17 47 17 49 16 1 34 -2 40 -7 7 -5 17 -2
25 8 19 24 21 328 2 366 -7 15 -14 31 -14 35 -5 29 -14 34 -65 31 -39 -2 -56
-8 -59 -19 -6 -16 -35 -22 -35 -7 0 5 7 23 16 40 15 29 15 32 -1 44 -21 16
-11 34 19 34 36 0 59 23 58 58 -1 34 -36 89 -63 97 -9 3 -20 12 -23 20 -3 8
-14 15 -25 15 -18 0 -19 -2 -4 -31 8 -16 24 -35 34 -42 10 -6 19 -17 19 -24 0
-7 7 -13 15 -13 25 0 17 -17 -16 -30 -22 -10 -33 -10 -42 -1 -8 8 -8 14 1 23
18 18 15 51 -3 45 -8 -4 -17 -2 -20 3 -3 5 -12 7 -19 4 -7 -3 -20 2 -29 10
-19 20 -23 20 -31 1 -3 -9 10 -29 35 -52 33 -31 37 -38 24 -46 -11 -6 -22 -4
-34 7 -10 9 -30 16 -45 16 -32 0 -42 20 -26 50 10 18 9 22 -9 27 -29 8 -14 35
18 32 36 -4 88 21 100 48 9 19 8 23 -5 23 -9 0 -14 7 -12 18 2 13 -3 17 -26
15 -17 -1 -36 3 -43 9 -34 28 -101 55 -116 46 -9 -5 -18 -4 -22 2 -3 5 -35 10
-70 10 -49 0 -64 -4 -69 -16 -6 -16 -8 -16 -24 0 -11 9 -36 16 -60 16 -45 0
-47 -2 -33 -29 5 -9 6 -23 2 -30 -9 -14 -14 -9 -36 34 -10 18 -22 20 -129 23
-80 2 -123 -1 -133 -9 -10 -9 -17 -9 -25 -1 -7 7 -22 12 -34 12 -13 0 -26 5
-29 10 -7 12 -19 13 -29 3z m204 -53 c0 -5 -4 -10 -10 -10 -5 0 -10 5 -10 10
0 6 5 10 10 10 6 0 10 -4 10 -10z m100 -55 c0 -8 -7 -15 -15 -15 -8 0 -15 7
-15 15 0 8 7 15 15 15 8 0 15 -7 15 -15z m475 5 c3 -5 15 -10 27 -10 17 0 18
-2 8 -15 -15 -19 -64 -20 -79 -2 -8 10 -7 17 1 25 15 15 35 15 43 2z m-1055
-26 c0 -8 -4 -14 -9 -14 -12 0 -32 26 -25 33 10 9 34 -4 34 -19z m719 -15 c15
-34 15 -34 -16 -43 -17 -5 -23 -3 -23 7 0 9 6 18 13 21 10 5 10 7 0 12 -17 7
-17 34 0 34 6 0 18 -14 26 -31z m64 24 c-7 -2 -21 -2 -30 0 -10 3 -4 5 12 5
17 0 24 -2 18 -5z m-358 -13 c3 -5 1 -10 -4 -10 -6 0 -11 5 -11 10 0 6 2 10 4
10 3 0 8 -4 11 -10z m410 0 c3 -5 1 -10 -4 -10 -6 0 -11 5 -11 10 0 6 2 10 4
10 3 0 8 -4 11 -10z m140 -10 c8 -13 -15 -13 -35 0 -12 8 -11 10 7 10 12 0 25
-4 28 -10z m-957 -49 c3 -8 -1 -12 -9 -9 -7 2 -15 10 -17 17 -3 8 1 12 9 9 7
-2 15 -10 17 -17z m449 -17 c-3 -3 -12 -4 -19 -1 -8 3 -5 6 6 6 11 1 17 -2 13
-5z m403 -8 c-6 -8 -18 -12 -26 -9 -19 7 -7 23 18 23 17 0 18 -3 8 -14z m75
-66 c3 -5 1 -10 -4 -10 -6 0 -11 5 -11 10 0 6 2 10 4 10 3 0 8 -4 11 -10z
m-100 -71 c-6 -29 -15 -37 -15 -12 0 17 8 33 16 33 2 0 1 -10 -1 -21z m35 1
c0 -5 -2 -10 -4 -10 -3 0 -8 5 -11 10 -3 6 -1 10 4 10 6 0 11 -4 11 -10z
m-400 -21 c0 -5 -10 -9 -21 -9 -18 0 -19 2 -9 15 12 15 30 12 30 -6z m450 11
c0 -5 -7 -10 -16 -10 -8 0 -12 5 -9 10 3 6 10 10 16 10 5 0 9 -4 9 -10z m-832
-22 c-6 -18 -28 -21 -28 -4 0 9 7 16 16 16 9 0 14 -5 12 -12z m940 0 c7 -7 12
-22 12 -35 0 -29 11 -29 44 2 14 13 27 22 27 20 6 -21 1 -34 -23 -59 -15 -17
-28 -36 -28 -43 0 -8 -13 -13 -34 -13 -30 0 -33 3 -29 21 4 14 0 25 -11 31
-16 9 -16 11 0 30 15 15 16 21 5 27 -15 10 -6 31 13 31 6 0 17 -5 24 -12z
m159 6 c-3 -3 -12 -4 -19 -1 -8 3 -5 6 6 6 11 1 17 -2 13 -5z m-527 -34 c0 -5
-5 -10 -11 -10 -5 0 -7 5 -4 10 3 6 8 10 11 10 2 0 4 -4 4 -10z m-254 -15 c18
-14 17 -14 -13 -15 -31 0 -41 9 -26 23 10 10 17 9 39 -8z m493 -34 l29 -29 -1
-239 c0 -132 3 -245 7 -252 4 -6 -1 -26 -11 -44 -17 -29 -24 -32 -69 -33 -27
0 -61 -4 -76 -8 -16 -5 -36 -5 -45 0 -26 11 -123 12 -156 1 -17 -6 -32 -5 -40
0 -6 6 -37 9 -67 8 -84 -3 -82 -2 -70 -25 9 -16 6 -22 -16 -36 -23 -16 -28
-16 -51 -2 -33 20 -31 31 6 44 24 8 28 13 19 22 -7 7 -8 12 -2 12 15 0 37 59
26 73 -19 24 -23 67 -7 73 8 4 15 15 15 25 0 16 -8 19 -46 19 -28 0 -43 4 -39
10 4 6 10 8 15 5 4 -3 22 6 38 20 30 25 30 26 29 124 -1 87 -3 100 -19 104
-24 7 -23 24 2 32 28 9 23 35 -10 48 -13 5 -13 6 1 6 9 1 24 10 34 21 17 19
31 20 235 20 184 0 219 2 224 15 8 21 13 19 45 -14z m261 9 c0 -5 -5 -10 -11
-10 -5 0 -7 5 -4 10 3 6 8 10 11 10 2 0 4 -4 4 -10z m144 -57 c-9 -35 -13 -43
-25 -43 -5 0 -9 9 -9 19 0 11 -4 23 -10 26 -20 12 -9 25 20 25 28 0 30 -2 24
-27z m56 13 c0 -3 -4 -8 -10 -11 -5 -3 -10 -1 -10 4 0 6 5 11 10 11 6 0 10 -2
10 -4z m-233 -32 c-3 -3 -12 -4 -19 -1 -8 3 -5 6 6 6 11 1 17 -2 13 -5z m-66
-47 c-13 -13 -26 -3 -16 12 3 6 11 8 17 5 6 -4 6 -10 -1 -17z m-817 -92 c-4
-8 -10 -12 -15 -9 -14 8 -10 24 6 24 9 0 12 -6 9 -15z m-254 -83 c0 -5 -7 -17
-15 -28 -14 -19 -14 -19 -15 2 0 11 3 24 7 27 9 10 23 9 23 -1z m360 -27 c0
-8 -7 -15 -16 -15 -14 0 -14 3 -4 15 7 8 14 15 16 15 2 0 4 -7 4 -15z m687
-11 c-3 -3 -12 -4 -19 -1 -8 3 -5 6 6 6 11 1 17 -2 13 -5z m-707 -138 c0 -7
-7 -19 -15 -26 -9 -7 -14 -19 -11 -25 5 -14 -52 -60 -61 -51 -4 3 3 16 15 29
12 13 22 32 22 43 0 23 18 44 37 44 7 0 13 -6 13 -14z m-4 -98 c-3 -7 -9 -21
-12 -30 -7 -20 -34 -25 -34 -6 0 14 30 48 42 48 5 0 7 -6 4 -12z m224 -118 c0
-5 -9 -10 -20 -10 -11 0 -20 5 -20 10 0 6 9 10 20 10 11 0 20 -4 20 -10z m40
-8 c0 -13 -12 -22 -22 -16 -10 6 -1 24 13 24 5 0 9 -4 9 -8z m430 -58 c0 -8
-5 -12 -10 -9 -6 4 -8 11 -5 16 9 14 15 11 15 -7z m-110 -13 c0 -12 -20 -25
-27 -18 -7 7 6 27 18 27 5 0 9 -4 9 -9z m40 -57 c0 -22 3 -24 14 -15 21 17 30
-3 33 -68 1 -30 7 -59 12 -64 7 -7 7 -15 0 -24 -15 -18 -30 -17 -23 2 5 11 -1
15 -20 15 -29 0 -37 27 -11 36 23 9 18 33 -9 44 -34 12 -44 53 -23 88 13 20
27 13 27 -14z m148 -9 c-3 -10 -27 -14 -42 -7 -11 6 16 23 32 19 7 -1 12 -6
10 -12z m-608 -14 c0 -6 -4 -13 -10 -16 -5 -3 -10 1 -10 9 0 9 5 16 10 16 6 0
10 -4 10 -9z m40 -61 c18 9 21 9 18 -1 -2 -7 -12 -17 -20 -23 -22 -13 -69 10
-61 31 5 12 8 11 23 -2 15 -14 22 -14 40 -5z m691 -2 c11 -11 19 -28 18 -37 0
-10 -2 -12 -6 -3 -2 6 -11 12 -18 12 -13 0 -35 29 -35 44 0 14 24 4 41 -16z
m-516 -7 c3 -5 1 -12 -5 -16 -5 -3 -10 1 -10 9 0 18 6 21 15 7z m235 -12 c0
-5 -4 -8 -8 -5 -5 3 -21 -2 -37 -10 -22 -11 -30 -12 -36 -2 -5 7 -3 16 4 20
18 12 77 10 77 -3z m111 -92 c-13 -13 -26 -3 -16 12 3 6 11 8 17 5 6 -4 6 -10
-1 -17z m259 3 c0 -5 -5 -10 -11 -10 -5 0 -7 5 -4 10 3 6 8 10 11 10 2 0 4 -4
4 -10z m-315 -20 c8 -24 -1 -40 -21 -40 -20 0 -29 27 -14 45 17 20 27 19 35
-5z m225 -74 c0 -3 -4 -8 -10 -11 -5 -3 -10 -1 -10 4 0 6 5 11 10 11 6 0 10
-2 10 -4z m-140 -10 c0 -2 -7 -9 -15 -16 -12 -10 -15 -10 -15 4 0 9 7 16 15
16 8 0 15 -2 15 -4z m177 -12 c-3 -3 -12 -4 -19 -1 -8 3 -5 6 6 6 11 1 17 -2
13 -5z m-182 -91 c-11 -7 -31 -13 -45 -13 -14 0 -31 -5 -38 -12 -6 -6 -15 -9
-19 -5 -11 12 14 29 48 33 18 2 37 8 43 14 5 5 14 6 19 3 6 -3 2 -12 -8 -20z
m-1005 -14 c0 -5 -4 -9 -10 -9 -5 0 -10 7 -10 16 0 8 5 12 10 9 6 -3 10 -10
10 -16z m1084 -15 c24 -23 20 -29 -21 -29 -56 0 -55 24 4 44 1 1 9 -6 17 -15z
m-92 -72 c17 -17 2 -28 -17 -12 -12 10 -21 10 -41 1 -30 -13 -44 -14 -44 -3 0
25 80 36 102 14z m261 -17 c7 -16 -8 -29 -23 -20 -15 9 -12 35 4 35 8 0 16 -7
19 -15z m17 -60 c7 -8 11 -15 9 -16 -2 -1 -16 -2 -31 -3 -39 -4 -36 28 3 33 4
1 12 -6 19 -14z m-993 -31 c-3 -3 -12 -4 -19 -1 -8 3 -5 6 6 6 11 1 17 -2 13
-5z m784 -124 c-18 -16 -27 -18 -37 -9 -24 19 -16 29 24 29 l37 -1 -24 -19z
m-817 -41 c-9 -10 -21 -19 -26 -19 -15 0 -8 19 14 40 27 25 38 8 12 -21z m774
-2 c14 -10 16 -57 2 -57 -5 0 -10 9 -10 20 0 11 -7 23 -15 26 -8 4 -15 10 -15
14 0 10 20 8 38 -3z m-718 -1 c0 -3 -4 -8 -10 -11 -5 -3 -10 -1 -10 4 0 6 5
11 10 11 6 0 10 -2 10 -4z m970 -6 c0 -5 -4 -10 -10 -10 -5 0 -10 5 -10 10 0
6 5 10 10 10 6 0 10 -4 10 -10z m-60 -38 c0 -13 -12 -22 -22 -16 -10 6 -1 24
13 24 5 0 9 -4 9 -8z m-1070 -10 c0 -13 -12 -22 -22 -16 -10 6 -1 24 13 24 5
0 9 -4 9 -8z m1140 -16 c0 -3 -4 -8 -10 -11 -5 -3 -10 -1 -10 4 0 6 5 11 10
11 6 0 10 -2 10 -4z m-1000 -25 c0 -5 -11 -16 -25 -25 -24 -16 -25 -16 -25 9
0 20 5 25 25 25 14 0 25 -4 25 -9z m-220 -11 c12 -8 11 -10 -7 -10 -13 0 -23
5 -23 10 0 13 11 13 30 0z m1130 -4 c0 -2 -7 -9 -15 -16 -12 -10 -15 -10 -15
4 0 9 7 16 15 16 8 0 15 -2 15 -4z"/>
<path d="M1635 1990 c3 -5 13 -10 21 -10 8 0 14 5 14 10 0 6 -9 10 -21 10 -11
0 -17 -4 -14 -10z"/>
<path d="M1039 1945 c-1 0 -2 -38 -3 -85 -2 -81 6 -116 25 -104 5 3 9 1 9 -4
0 -5 -8 -12 -18 -14 -16 -5 -17 -18 -16 -144 1 -76 2 -141 3 -144 2 -9 91 2
91 11 0 5 5 9 10 9 6 0 10 -6 10 -14 0 -12 20 -14 113 -11 61 2 119 5 127 5 8
1 30 -1 49 -4 42 -7 61 7 61 48 0 17 0 57 0 89 0 32 -3 64 -7 70 -4 7 -8 72
-9 145 -1 140 -10 170 -40 141 -12 -13 -15 -51 -16 -223 -1 -117 -5 -209 -10
-212 -17 -11 -284 -7 -304 4 -15 8 -23 7 -36 -5 -10 -9 -18 -11 -18 -5 0 6 8
15 18 21 14 8 17 25 17 105 0 53 -4 96 -8 96 -5 0 -6 8 -2 18 4 9 8 45 9 79 1
34 5 65 9 69 3 3 19 7 34 8 15 1 33 4 38 8 6 3 59 6 119 7 108 1 140 6 98 18
-12 3 -22 9 -22 14 0 13 -64 11 -77 -2 -7 -7 -19 -8 -30 -4 -13 6 -163 13
-224 10z"/>
<path d="M1806 2441 c-3 -5 1 -14 8 -20 16 -13 32 2 21 19 -8 12 -22 13 -29 1z"/>
<path d="M1901 2351 c-18 -11 -10 -45 12 -49 12 -3 17 3 17 22 0 29 -10 38
-29 27z"/>
<path d="M450 2284 c-15 -17 -17 -211 -3 -225 15 -15 46 16 49 50 1 17 -2 33
-7 37 -5 3 -6 10 -3 16 10 16 16 79 10 104 -7 28 -31 37 -46 18z"/>
<path d="M1989 2107 c-1 -4 -1 -16 -1 -27 0 -35 2 -41 10 -36 10 6 9 52 -1 62
-4 4 -7 4 -8 1z"/>
<path d="M2040 2096 c0 -17 18 -25 43 -18 14 3 15 7 6 18 -15 18 -49 18 -49 0z"/>
<path d="M1926 2061 c-14 -16 -15 -19 -2 -24 8 -3 21 2 30 12 14 16 15 19 2
24 -8 3 -21 -2 -30 -12z"/>
<path d="M451 1986 c-12 -14 -18 -185 -12 -331 1 -27 1 -114 0 -192 -1 -89 2
-148 9 -156 7 -8 8 -18 1 -27 -14 -22 -10 -578 5 -583 31 -10 45 5 43 47 -1
22 -6 44 -12 48 -7 5 -7 13 1 25 13 22 16 560 3 569 -5 3 -5 13 -1 22 9 19 9
29 -2 55 -5 9 -4 23 2 30 12 14 13 125 0 133 -4 3 -4 13 0 22 13 24 12 154 0
169 -6 7 -7 27 -4 45 4 18 7 55 9 83 1 38 -2 50 -14 53 -9 1 -21 -4 -28 -12z"/>
<path d="M2065 1990 c-4 -6 -4 -22 -1 -36 5 -17 2 -26 -9 -30 -21 -8 -19 -34
3 -34 27 0 42 20 42 56 0 34 -23 63 -35 44z"/>
<path d="M2058 1872 c-19 -4 -24 -27 -8 -37 13 -8 13 -205 1 -205 -5 0 -4 -13
2 -30 6 -16 18 -30 25 -30 8 0 16 -9 19 -20 3 -11 9 -18 13 -15 10 6 10 64 -1
70 -12 8 -11 62 2 86 7 15 7 24 -1 34 -9 10 -8 19 0 35 9 16 9 25 1 33 -6 6
-11 23 -11 38 0 30 -17 47 -42 41z"/>
<path d="M2055 1523 c-12 -12 -16 -27 -12 -55 3 -20 1 -54 -3 -75 -5 -20 -7
-40 -4 -45 3 -4 23 1 44 12 39 20 39 21 39 78 -1 54 -19 102 -39 102 -4 0 -16
-8 -25 -17z"/>
<path d="M1957 1300 c-16 -16 -33 -30 -38 -30 -16 0 -9 -29 9 -39 15 -8 26 -3
56 28 25 25 35 43 30 54 -9 25 -25 21 -57 -13z"/>
<path d="M1884 1199 c-7 -13 14 -39 32 -39 22 0 16 37 -6 43 -11 3 -23 1 -26
-4z"/>
<path d="M1979 1098 c-10 -18 -5 -26 35 -67 l46 -47 0 -130 c0 -130 0 -131 25
-142 14 -7 28 -12 29 -12 2 0 4 53 4 118 0 125 -14 182 -46 182 -13 0 -14 2
-4 9 20 12 11 44 -16 56 -12 5 -25 17 -27 26 -9 27 -33 31 -46 7z"/>
<path d="M1042 901 c-4 -4 -8 -23 -9 -43 -2 -30 2 -40 19 -49 l22 -12 -24 -9
c-16 -6 -20 -12 -13 -19 13 -13 42 12 59 51 9 22 18 25 60 26 27 0 61 4 76 8
16 5 36 5 45 0 23 -9 90 -12 103 -4 6 4 0 16 -16 30 -24 24 -31 25 -170 25
-79 1 -148 -1 -152 -4z"/>
<path d="M1395 890 c3 -5 14 -10 23 -10 9 -1 28 -7 42 -15 l25 -14 -27 -1
c-27 0 -27 -1 -23 -57 3 -31 0 -62 -5 -68 -7 -9 -6 -16 4 -24 12 -10 17 -9 27
7 7 11 18 18 25 15 10 -3 12 15 11 74 -1 43 -6 84 -10 91 -10 14 -101 17 -92
2z"/>
<path d="M1074 734 c-3 -10 -13 -35 -22 -54 -19 -39 -22 -86 -9 -113 5 -10 5
-26 1 -35 -10 -24 -12 -243 -2 -264 4 -9 4 -19 -1 -22 -9 -6 -7 -45 4 -81 9
-30 -28 -59 -78 -62 -23 -1 -54 -2 -69 -2 -18 -1 -28 -6 -28 -16 0 -8 -8 -15
-19 -15 -10 0 -24 7 -31 15 -16 19 -239 22 -258 3 -9 -9 -12 -9 -12 -1 0 7
-15 13 -32 15 -33 3 -33 3 -36 66 -2 34 1 62 6 62 9 0 14 73 6 101 -4 15 -37
19 -50 6 -5 -5 -9 -181 -5 -250 2 -28 44 -42 78 -25 29 14 79 6 96 -17 4 -6
15 -1 27 13 l19 23 38 -19 c43 -22 72 -19 52 4 -19 23 15 18 35 -5 24 -26 89
-26 112 0 21 23 53 27 34 4 -10 -12 -8 -15 12 -19 20 -4 112 -2 129 2 3 1 6 8
7 15 1 6 4 32 8 57 5 41 7 91 5 145 -1 11 0 74 2 140 2 66 0 133 -5 149 -4 17
-4 32 0 35 10 7 9 147 0 157 -4 4 -10 -2 -14 -12z"/>
<path d="M1460 690 c0 -5 6 -10 13 -10 7 -1 5 -6 -5 -14 -23 -17 -23 -26 0
-26 28 0 43 20 31 42 -10 19 -39 25 -39 8z"/>
<path d="M452 648 c-20 -20 -15 -66 8 -73 30 -9 39 2 37 43 -2 39 -22 53 -45
30z"/>
<path d="M1429 633 c-1 -5 -1 -88 -1 -186 0 -118 4 -182 12 -191 8 -10 8 -16
0 -21 -7 -4 -9 -30 -6 -68 3 -34 1 -66 -4 -72 -23 -28 31 -49 123 -47 20 0 43
1 50 1 6 0 44 -2 82 -4 39 -1 75 1 82 7 6 5 14 5 17 0 10 -16 93 -14 110 3 16
16 56 13 56 -5 0 -4 33 -8 73 -7 l72 2 7 95 c17 218 17 288 1 294 -8 4 -13 13
-10 20 6 15 -16 29 -27 19 -3 -4 -6 -81 -6 -172 -1 -122 -4 -171 -14 -184 -12
-15 -36 -17 -238 -17 -138 0 -228 -4 -234 -10 -7 -7 -21 -5 -42 6 -30 15 -37
28 -34 64 7 70 2 320 -6 341 -8 20 -7 31 2 45 18 24 9 50 -24 74 -30 22 -39
24 -41 13z"/>
<path d="M440 511 c0 -10 7 -24 15 -31 12 -10 16 -9 21 4 3 9 4 23 0 31 -8 21
-36 19 -36 -4z"/>
<path d="M440 425 c0 -21 28 -31 43 -16 9 9 8 14 -3 21 -22 14 -40 12 -40 -5z"/>
</g>
</svg>
